<?xml version="1.0" encoding="utf-8"?>
<!-- Generator: Adobe Illustrator 17.0.0, SVG Export Plug-In . SVG Version: 6.00 Build 0)  -->
<!DOCTYPE svg PUBLIC "-//W3C//DTD SVG 1.1//EN" "http://www.w3.org/Graphics/SVG/1.1/DTD/svg11.dtd">
<svg version="1.1" id="Capa_1" xmlns="http://www.w3.org/2000/svg" xmlns:xlink="http://www.w3.org/1999/xlink" x="0px" y="0px"
	 width="200px" height="60px" viewBox="0 0 200 60" enable-background="new 0 0 200 60" xml:space="preserve">
<g>
	<path fill-rule="evenodd" clip-rule="evenodd" fill="#FFFFFF" d="M77.155,8.846v20.467c0,3.838-1.226,6.914-3.677,9.228
		c-2.452,2.315-5.565,3.472-9.342,3.472c-3.776,0-6.867-1.142-9.273-3.426c-2.497-2.345-3.746-5.437-3.746-9.274V8.846h5.756V29.13
		c0,1.919,0.518,3.548,1.553,4.888c1.31,1.675,3.213,2.513,5.71,2.513c2.497,0,4.401-0.838,5.71-2.513
		c1.035-1.34,1.553-2.969,1.553-4.888V8.846H77.155z"/>
	<path fill-rule="evenodd" clip-rule="evenodd" fill="#FFFFFF" d="M104.406,11.359l-4.203,4.431
		c-1.218-1.706-3.106-2.558-5.665-2.558c-1.462,0-2.68,0.32-3.654,0.959c-1.096,0.731-1.645,1.797-1.645,3.198
		c0,1.706,1.325,3.046,3.974,4.02c4.507,1.675,6.974,2.634,7.4,2.878c2.65,1.645,3.974,4.112,3.974,7.401
		c0,3.32-1.173,5.908-3.518,7.766c-2.162,1.706-4.934,2.558-8.314,2.558c-4.599,0-8.131-1.462-10.598-4.386l4.34-4.203
		c1.492,2.254,3.624,3.381,6.395,3.381c1.462,0,2.741-0.365,3.837-1.096c1.218-0.822,1.827-1.934,1.827-3.335
		c0-1.888-1.325-3.335-3.974-4.34c-4.842-1.858-7.309-2.817-7.4-2.878c-2.649-1.614-3.974-4.066-3.974-7.355
		c0-3.137,1.233-5.604,3.7-7.401c2.223-1.584,4.964-2.376,8.223-2.376C98.97,8.024,102.062,9.135,104.406,11.359z"/>
	<polygon fill-rule="evenodd" clip-rule="evenodd" fill="#FFFFFF" points="153.014,8.846 140.315,41.191 146.939,41.191 
		155.755,16.749 164.846,41.191 171.059,41.191 157.994,8.846 	"/>
	<polygon fill-rule="evenodd" clip-rule="evenodd" fill="#FFFFFF" points="174.57,41.191 174.57,8.846 180.326,8.846 
		180.326,35.983 194.076,35.983 194.076,41.191 	"/>
	<path fill-rule="evenodd" clip-rule="evenodd" fill="#FFFFFF" d="M136.452,8.846v20.467c0,3.838-1.226,6.914-3.677,9.228
		c-2.452,2.315-5.566,3.472-9.342,3.472c-3.776,0-6.867-1.142-9.273-3.426c-2.497-2.345-3.746-5.437-3.746-9.274V8.846h5.756V29.13
		c0,1.919,0.518,3.548,1.553,4.888c1.309,1.675,3.213,2.513,5.71,2.513c2.497,0,4.401-0.838,5.71-2.513
		c1.035-1.34,1.553-2.969,1.553-4.888V8.846H136.452z"/>
	<path fill-rule="evenodd" clip-rule="evenodd" fill="#FFFFFF" d="M18.217,42.084V21.618c0-3.838,1.226-6.914,3.677-9.228
		c2.452-2.315,5.566-3.472,9.342-3.472c3.776,0,6.867,1.142,9.273,3.426c2.497,2.345,3.746,5.436,3.746,9.274v20.467H38.5V21.8
		c0-1.919-0.518-3.548-1.553-4.888c-1.31-1.675-3.213-2.513-5.71-2.513c-2.497,0-4.401,0.838-5.71,2.513
		c-1.035,1.34-1.553,2.97-1.553,4.888v20.284H18.217z"/>
	<rect x="4.486" y="17.054" fill-rule="evenodd" clip-rule="evenodd" fill="#FFFFFF" width="6.155" height="24.93"/>
	<path fill-rule="evenodd" clip-rule="evenodd" fill="#FFFFFF" d="M52.954,49.185l-1.719,0.306
		c-0.058-0.342-0.189-0.599-0.395-0.772c-0.205-0.173-0.471-0.259-0.799-0.259c-0.435,0-0.782,0.151-1.041,0.452
		c-0.259,0.301-0.389,0.805-0.389,1.511c0,0.785,0.131,1.34,0.394,1.664c0.263,0.324,0.616,0.486,1.058,0.486
		c0.331,0,0.602-0.095,0.813-0.284c0.211-0.189,0.36-0.515,0.447-0.977l1.719,0.293c-0.178,0.79-0.52,1.386-1.025,1.789
		c-0.505,0.403-1.183,0.605-2.032,0.605c-0.965,0-1.735-0.305-2.309-0.916c-0.574-0.611-0.861-1.456-0.861-2.535
		c0-1.092,0.288-1.943,0.864-2.551c0.576-0.608,1.354-0.913,2.336-0.913c0.803,0,1.442,0.173,1.916,0.519
		C52.406,47.949,52.747,48.477,52.954,49.185z"/>
	<path fill-rule="evenodd" clip-rule="evenodd" fill="#FFFFFF" d="M53.88,50.448c0-0.581,0.143-1.144,0.429-1.688
		c0.286-0.544,0.691-0.959,1.215-1.246c0.524-0.287,1.11-0.43,1.756-0.43c0.999,0,1.817,0.325,2.455,0.975
		c0.638,0.65,0.957,1.471,0.957,2.464c0,1.001-0.322,1.83-0.967,2.489c-0.644,0.658-1.456,0.987-2.433,0.987
		c-0.605,0-1.182-0.137-1.731-0.411c-0.549-0.274-0.967-0.676-1.252-1.205C54.023,51.852,53.88,51.208,53.88,50.448z M55.676,50.541
		c0,0.656,0.155,1.159,0.466,1.508c0.31,0.349,0.693,0.523,1.148,0.523c0.455,0,0.837-0.174,1.145-0.523
		c0.308-0.349,0.463-0.856,0.463-1.52c0-0.648-0.154-1.146-0.463-1.495c-0.308-0.349-0.69-0.523-1.145-0.523
		c-0.455,0-0.838,0.174-1.148,0.523C55.831,49.382,55.676,49.885,55.676,50.541z"/>
	<path fill-rule="evenodd" clip-rule="evenodd" fill="#FFFFFF" d="M61.945,47.224h1.604v0.902c0.576-0.695,1.261-1.042,2.057-1.042
		c0.423,0,0.789,0.087,1.1,0.261c0.311,0.174,0.565,0.437,0.764,0.79c0.29-0.352,0.603-0.616,0.939-0.79
		c0.336-0.174,0.694-0.261,1.076-0.261c0.485,0,0.895,0.098,1.231,0.295c0.336,0.197,0.587,0.486,0.752,0.867
		c0.12,0.282,0.18,0.737,0.18,1.367v4.22h-1.745v-3.772c0-0.654-0.06-1.077-0.18-1.267c-0.162-0.249-0.411-0.373-0.747-0.373
		c-0.245,0-0.475,0.074-0.691,0.224c-0.216,0.149-0.371,0.368-0.467,0.655c-0.095,0.288-0.143,0.743-0.143,1.364v3.169H65.93v-3.616
		c0-0.642-0.031-1.056-0.093-1.243c-0.062-0.186-0.158-0.325-0.289-0.416c-0.13-0.091-0.307-0.137-0.531-0.137
		c-0.269,0-0.511,0.072-0.726,0.217c-0.215,0.145-0.369,0.354-0.463,0.627c-0.093,0.273-0.14,0.727-0.14,1.361v3.206h-1.744V47.224z
		"/>
	<path fill-rule="evenodd" clip-rule="evenodd" fill="#FFFFFF" d="M77.755,53.833v-0.989c-0.241,0.352-0.558,0.633-0.95,0.841
		c-0.393,0.209-0.807,0.313-1.243,0.313c-0.445,0-0.843-0.098-1.196-0.293c-0.353-0.195-0.609-0.47-0.767-0.823
		c-0.158-0.354-0.237-0.842-0.237-1.466v-4.192h1.744v3.043c0,0.931,0.032,1.502,0.097,1.712c0.064,0.21,0.182,0.376,0.353,0.499
		c0.171,0.123,0.387,0.184,0.649,0.184c0.3,0,0.568-0.082,0.805-0.246c0.237-0.164,0.399-0.368,0.487-0.611
		c0.087-0.243,0.131-0.839,0.131-1.786v-2.793h1.745v6.609H77.755z"/>
	<path fill-rule="evenodd" clip-rule="evenodd" fill="#FFFFFF" d="M87.183,53.833h-1.745v-3.368c0-0.712-0.038-1.173-0.113-1.382
		c-0.075-0.209-0.198-0.372-0.367-0.488c-0.169-0.116-0.373-0.174-0.612-0.174c-0.305,0-0.579,0.083-0.822,0.248
		c-0.243,0.166-0.409,0.385-0.499,0.659c-0.09,0.273-0.135,0.779-0.135,1.516v2.989h-1.744v-6.609h1.617v0.97
		c0.579-0.74,1.308-1.11,2.187-1.11c0.387,0,0.742,0.069,1.062,0.208c0.321,0.139,0.564,0.316,0.728,0.531
		c0.164,0.215,0.279,0.46,0.344,0.733c0.065,0.273,0.097,0.665,0.097,1.175V53.833z"/>
	<path fill-rule="evenodd" clip-rule="evenodd" fill="#FFFFFF" d="M88.957,46.333v-1.617h1.744v1.617H88.957z M88.957,53.833v-6.609
		h1.744v6.609H88.957z"/>
	<path fill-rule="evenodd" clip-rule="evenodd" fill="#FFFFFF" d="M98.243,49.185l-1.719,0.306c-0.058-0.342-0.19-0.599-0.395-0.772
		c-0.205-0.173-0.471-0.259-0.799-0.259c-0.435,0-0.782,0.151-1.041,0.452c-0.259,0.301-0.388,0.805-0.388,1.511
		c0,0.785,0.131,1.34,0.394,1.664c0.263,0.324,0.616,0.486,1.058,0.486c0.331,0,0.602-0.095,0.813-0.284
		c0.211-0.189,0.36-0.515,0.447-0.977l1.719,0.293c-0.178,0.79-0.52,1.386-1.025,1.789c-0.505,0.403-1.183,0.605-2.032,0.605
		c-0.965,0-1.735-0.305-2.309-0.916c-0.574-0.611-0.861-1.456-0.861-2.535c0-1.092,0.288-1.943,0.863-2.551
		c0.576-0.608,1.354-0.913,2.336-0.913c0.803,0,1.442,0.173,1.916,0.519C97.695,47.949,98.036,48.477,98.243,49.185z"/>
	<path fill-rule="evenodd" clip-rule="evenodd" fill="#FFFFFF" d="M100.876,49.261l-1.579-0.28c0.178-0.645,0.485-1.123,0.92-1.432
		c0.435-0.31,1.082-0.465,1.94-0.465c0.78,0,1.36,0.092,1.742,0.277c0.381,0.184,0.65,0.419,0.805,0.702
		c0.155,0.284,0.233,0.805,0.233,1.563l-0.026,2.038c0,0.58,0.028,1.008,0.083,1.283c0.056,0.275,0.159,0.571,0.311,0.886h-1.732
		c-0.046-0.115-0.101-0.285-0.167-0.51c-0.029-0.103-0.05-0.17-0.062-0.203c-0.297,0.293-0.616,0.513-0.955,0.659
		c-0.339,0.146-0.7,0.22-1.085,0.22c-0.678,0-1.212-0.184-1.602-0.553c-0.391-0.369-0.586-0.835-0.586-1.399
		c0-0.373,0.089-0.705,0.267-0.998c0.178-0.292,0.428-0.516,0.749-0.671c0.321-0.155,0.784-0.291,1.389-0.407
		c0.816-0.153,1.381-0.296,1.696-0.429v-0.176c0-0.34-0.083-0.582-0.249-0.727c-0.166-0.145-0.48-0.217-0.941-0.217
		c-0.312,0-0.555,0.062-0.729,0.186C101.125,48.732,100.984,48.95,100.876,49.261z M103.219,50.675
		c-0.224,0.075-0.578,0.164-1.063,0.267c-0.485,0.104-0.802,0.205-0.951,0.305c-0.228,0.162-0.342,0.367-0.342,0.615
		c0,0.245,0.091,0.456,0.274,0.634c0.182,0.178,0.414,0.267,0.696,0.267c0.315,0,0.615-0.104,0.901-0.311
		c0.211-0.157,0.35-0.35,0.416-0.578c0.046-0.149,0.068-0.433,0.068-0.852V50.675z"/>
	<path fill-rule="evenodd" clip-rule="evenodd" fill="#FFFFFF" d="M112.422,49.185l-1.719,0.306
		c-0.058-0.342-0.189-0.599-0.395-0.772c-0.205-0.173-0.471-0.259-0.799-0.259c-0.435,0-0.782,0.151-1.041,0.452
		c-0.259,0.301-0.388,0.805-0.388,1.511c0,0.785,0.131,1.34,0.394,1.664c0.263,0.324,0.616,0.486,1.058,0.486
		c0.331,0,0.602-0.095,0.813-0.284c0.211-0.189,0.36-0.515,0.447-0.977l1.719,0.293c-0.178,0.79-0.52,1.386-1.025,1.789
		c-0.505,0.403-1.183,0.605-2.032,0.605c-0.965,0-1.735-0.305-2.309-0.916c-0.574-0.611-0.861-1.456-0.861-2.535
		c0-1.092,0.288-1.943,0.863-2.551c0.576-0.608,1.354-0.913,2.336-0.913c0.803,0,1.442,0.173,1.916,0.519
		C111.875,47.949,112.215,48.477,112.422,49.185z"/>
	<path fill-rule="evenodd" clip-rule="evenodd" fill="#FFFFFF" d="M113.756,46.333v-1.617h1.744v1.617H113.756z M113.756,53.833
		v-6.609h1.744v6.609H113.756z"/>
	<path fill-rule="evenodd" clip-rule="evenodd" fill="#FFFFFF" d="M116.88,50.448c0-0.581,0.143-1.144,0.429-1.688
		c0.286-0.544,0.691-0.959,1.215-1.246c0.524-0.287,1.11-0.43,1.756-0.43c0.999,0,1.817,0.325,2.455,0.975
		c0.638,0.65,0.957,1.471,0.957,2.464c0,1.001-0.322,1.83-0.967,2.489c-0.644,0.658-1.456,0.987-2.433,0.987
		c-0.605,0-1.182-0.137-1.731-0.411c-0.549-0.274-0.967-0.676-1.252-1.205C117.023,51.852,116.88,51.208,116.88,50.448z
		 M118.675,50.541c0,0.656,0.155,1.159,0.466,1.508c0.31,0.349,0.693,0.523,1.148,0.523c0.455,0,0.837-0.174,1.145-0.523
		c0.308-0.349,0.462-0.856,0.462-1.52c0-0.648-0.154-1.146-0.462-1.495c-0.308-0.349-0.69-0.523-1.145-0.523
		c-0.455,0-0.838,0.174-1.148,0.523C118.83,49.382,118.675,49.885,118.675,50.541z M119.49,46.371l0.866-1.859h1.948l-1.719,1.859
		H119.49z"/>
	<path fill-rule="evenodd" clip-rule="evenodd" fill="#FFFFFF" d="M131.082,53.833h-1.745v-3.368c0-0.712-0.038-1.173-0.113-1.382
		c-0.075-0.209-0.198-0.372-0.367-0.488c-0.169-0.116-0.373-0.174-0.612-0.174c-0.305,0-0.579,0.083-0.822,0.248
		c-0.243,0.166-0.409,0.385-0.499,0.659c-0.09,0.273-0.135,0.779-0.135,1.516v2.989h-1.745v-6.609h1.617v0.97
		c0.579-0.74,1.308-1.11,2.187-1.11c0.387,0,0.742,0.069,1.062,0.208c0.321,0.139,0.564,0.316,0.728,0.531
		c0.165,0.215,0.279,0.46,0.344,0.733c0.065,0.273,0.097,0.665,0.097,1.175V53.833z"/>
	<path fill-rule="evenodd" clip-rule="evenodd" fill="#FFFFFF" d="M134.609,45.989l0.267-1.273h1.118l-0.267,1.273H134.609z
		 M132.966,53.833l1.384-6.609h1.119l-1.384,6.609H132.966z"/>
	<path fill-rule="evenodd" clip-rule="evenodd" fill="#FFFFFF" d="M135.815,53.833l1.384-6.609h1.027l-0.239,1.155
		c0.448-0.451,0.868-0.78,1.257-0.986c0.39-0.206,0.788-0.309,1.195-0.309c0.541,0,0.965,0.146,1.273,0.437
		c0.308,0.291,0.462,0.68,0.462,1.167c0,0.244-0.057,0.629-0.172,1.154l-0.893,3.991h-1.118l0.927-4.18
		c0.092-0.406,0.138-0.706,0.138-0.9c0-0.219-0.077-0.398-0.232-0.534c-0.154-0.136-0.378-0.205-0.669-0.205
		c-0.588,0-1.112,0.207-1.57,0.62c-0.459,0.413-0.796,1.122-1.012,2.126l-0.64,3.074H135.815z"/>
	<path fill-rule="evenodd" clip-rule="evenodd" fill="#FFFFFF" d="M142.904,53.833l1.384-6.609h1.027l-0.239,1.155
		c0.448-0.451,0.868-0.78,1.257-0.986c0.39-0.206,0.788-0.309,1.195-0.309c0.541,0,0.965,0.146,1.273,0.437
		c0.308,0.291,0.462,0.68,0.462,1.167c0,0.244-0.057,0.629-0.172,1.154l-0.893,3.991h-1.118l0.927-4.18
		c0.092-0.406,0.138-0.706,0.138-0.9c0-0.219-0.077-0.398-0.232-0.534c-0.154-0.136-0.377-0.205-0.669-0.205
		c-0.588,0-1.111,0.207-1.57,0.62c-0.459,0.413-0.796,1.122-1.012,2.126l-0.64,3.074H142.904z"/>
	<path fill-rule="evenodd" clip-rule="evenodd" fill="#FFFFFF" d="M150.197,51.323c0-1.287,0.379-2.352,1.137-3.196
		c0.626-0.695,1.446-1.043,2.461-1.043c0.796,0,1.437,0.248,1.924,0.745c0.487,0.497,0.73,1.167,0.73,2.011
		c0,0.757-0.153,1.462-0.46,2.113c-0.307,0.652-0.743,1.151-1.308,1.499c-0.566,0.348-1.161,0.521-1.787,0.521
		c-0.514,0-0.981-0.11-1.402-0.329c-0.421-0.219-0.742-0.53-0.963-0.931C150.308,52.312,150.197,51.848,150.197,51.323z
		 M151.318,51.212c0,0.621,0.15,1.093,0.45,1.414c0.3,0.321,0.681,0.481,1.143,0.481c0.242,0,0.481-0.049,0.719-0.146
		c0.237-0.097,0.458-0.245,0.662-0.444c0.204-0.199,0.378-0.426,0.522-0.68c0.144-0.255,0.259-0.529,0.347-0.823
		c0.129-0.41,0.194-0.804,0.194-1.181c0-0.596-0.151-1.059-0.453-1.389c-0.302-0.329-0.682-0.494-1.14-0.494
		c-0.354,0-0.677,0.084-0.969,0.252c-0.292,0.168-0.555,0.413-0.79,0.736c-0.235,0.323-0.408,0.699-0.519,1.128
		C151.373,50.494,151.318,50.876,151.318,51.212z"/>
	<path fill-rule="evenodd" clip-rule="evenodd" fill="#FFFFFF" d="M158.753,53.833l-1.084-6.609h1.094l0.568,3.638
		c0.062,0.398,0.139,1.047,0.231,1.947c0.216-0.468,0.491-1.005,0.827-1.611l2.207-3.974h1.187l-3.779,6.609H158.753z"/>
	<path fill-rule="evenodd" clip-rule="evenodd" fill="#FFFFFF" d="M167.907,53.012c-0.39,0.336-0.765,0.58-1.126,0.732
		c-0.361,0.152-0.746,0.229-1.157,0.229c-0.61,0-1.101-0.179-1.474-0.537c-0.373-0.358-0.56-0.816-0.56-1.374
		c0-0.368,0.084-0.694,0.252-0.977c0.168-0.283,0.39-0.511,0.668-0.682c0.278-0.172,0.617-0.295,1.019-0.369
		c0.254-0.05,0.736-0.089,1.445-0.118c0.709-0.029,1.218-0.104,1.526-0.224c0.088-0.307,0.133-0.562,0.133-0.765
		c0-0.261-0.096-0.466-0.287-0.616c-0.262-0.207-0.645-0.311-1.149-0.311c-0.475,0-0.863,0.105-1.165,0.315
		c-0.302,0.21-0.521,0.508-0.659,0.895l-1.133-0.102c0.232-0.654,0.599-1.155,1.102-1.503c0.503-0.348,1.137-0.522,1.903-0.522
		c0.815,0,1.461,0.195,1.937,0.584c0.364,0.29,0.546,0.667,0.546,1.131c0,0.352-0.051,0.76-0.153,1.224l-0.362,1.64
		c-0.115,0.522-0.172,0.947-0.172,1.274c0,0.207,0.045,0.506,0.135,0.895h-1.136C167.976,53.617,167.932,53.344,167.907,53.012z
		 M168.329,50.484c-0.159,0.062-0.329,0.11-0.511,0.143c-0.182,0.033-0.485,0.068-0.908,0.106c-0.654,0.058-1.116,0.132-1.385,0.221
		c-0.269,0.089-0.473,0.231-0.609,0.426c-0.137,0.195-0.205,0.41-0.205,0.647c0,0.315,0.109,0.574,0.326,0.777
		c0.218,0.203,0.528,0.305,0.93,0.305c0.373,0,0.732-0.098,1.076-0.295c0.344-0.197,0.616-0.471,0.817-0.824
		C168.06,51.636,168.217,51.135,168.329,50.484z"/>
	<path fill-rule="evenodd" clip-rule="evenodd" fill="#FFFFFF" d="M174.991,52.875c-0.642,0.732-1.312,1.098-2.012,1.098
		c-0.625,0-1.145-0.231-1.561-0.692c-0.416-0.461-0.624-1.131-0.624-2.008c0-0.803,0.165-1.536,0.494-2.2
		c0.329-0.664,0.741-1.162,1.236-1.493c0.495-0.331,0.991-0.497,1.487-0.497c0.82,0,1.439,0.395,1.857,1.184l0.745-3.553h1.12
		l-1.897,9.117h-1.044L174.991,52.875z M171.915,51.062c0,0.458,0.046,0.82,0.137,1.084c0.091,0.264,0.247,0.484,0.467,0.66
		c0.22,0.176,0.484,0.263,0.791,0.263c0.511,0,0.973-0.264,1.388-0.793c0.556-0.702,0.834-1.569,0.834-2.601
		c0-0.521-0.137-0.928-0.411-1.222c-0.274-0.294-0.618-0.44-1.033-0.44c-0.27,0-0.516,0.06-0.738,0.18
		c-0.222,0.12-0.442,0.323-0.66,0.61c-0.218,0.287-0.402,0.651-0.551,1.093C171.989,50.339,171.915,50.727,171.915,51.062z"/>
	<path fill-rule="evenodd" clip-rule="evenodd" fill="#FFFFFF" d="M177.833,51.323c0-1.287,0.379-2.352,1.137-3.196
		c0.626-0.695,1.446-1.043,2.461-1.043c0.796,0,1.437,0.248,1.923,0.745c0.487,0.497,0.73,1.167,0.73,2.011
		c0,0.757-0.153,1.462-0.46,2.113c-0.307,0.652-0.743,1.151-1.308,1.499c-0.566,0.348-1.161,0.521-1.787,0.521
		c-0.514,0-0.981-0.11-1.402-0.329c-0.421-0.219-0.742-0.53-0.963-0.931C177.944,52.312,177.833,51.848,177.833,51.323z
		 M178.953,51.212c0,0.621,0.15,1.093,0.45,1.414c0.3,0.321,0.681,0.481,1.143,0.481c0.242,0,0.481-0.049,0.719-0.146
		c0.237-0.097,0.458-0.245,0.662-0.444c0.204-0.199,0.378-0.426,0.522-0.68c0.144-0.255,0.259-0.529,0.347-0.823
		c0.129-0.41,0.194-0.804,0.194-1.181c0-0.596-0.151-1.059-0.453-1.389c-0.302-0.329-0.682-0.494-1.14-0.494
		c-0.354,0-0.677,0.084-0.969,0.252c-0.292,0.168-0.555,0.413-0.791,0.736c-0.235,0.323-0.408,0.699-0.519,1.128
		C179.009,50.494,178.953,50.876,178.953,51.212z"/>
	<path fill-rule="evenodd" clip-rule="evenodd" fill="#FFFFFF" d="M184.731,53.833l1.375-6.609h1.004l-0.285,1.353
		c0.343-0.508,0.677-0.884,1.003-1.127c0.325-0.244,0.658-0.365,0.998-0.365c0.224,0,0.499,0.081,0.827,0.242l-0.46,1.044
		c-0.195-0.144-0.408-0.217-0.64-0.217c-0.394,0-0.799,0.22-1.216,0.66c-0.417,0.44-0.745,1.23-0.986,2.371l-0.551,2.649H184.731z"
		/>
	<path fill-rule="evenodd" clip-rule="evenodd" fill="#FFFFFF" d="M193.429,53.012c-0.39,0.336-0.765,0.58-1.126,0.732
		c-0.361,0.152-0.746,0.229-1.157,0.229c-0.61,0-1.101-0.179-1.474-0.537c-0.373-0.358-0.56-0.816-0.56-1.374
		c0-0.368,0.084-0.694,0.252-0.977c0.168-0.283,0.391-0.511,0.668-0.682c0.278-0.172,0.618-0.295,1.019-0.369
		c0.254-0.05,0.736-0.089,1.445-0.118c0.709-0.029,1.218-0.104,1.526-0.224c0.088-0.307,0.133-0.562,0.133-0.765
		c0-0.261-0.096-0.466-0.287-0.616c-0.262-0.207-0.645-0.311-1.149-0.311c-0.475,0-0.863,0.105-1.165,0.315
		c-0.302,0.21-0.521,0.508-0.659,0.895l-1.133-0.102c0.232-0.654,0.599-1.155,1.102-1.503c0.503-0.348,1.137-0.522,1.903-0.522
		c0.815,0,1.461,0.195,1.937,0.584c0.364,0.29,0.546,0.667,0.546,1.131c0,0.352-0.051,0.76-0.153,1.224l-0.362,1.64
		c-0.115,0.522-0.172,0.947-0.172,1.274c0,0.207,0.045,0.506,0.135,0.895h-1.136C193.499,53.617,193.454,53.344,193.429,53.012z
		 M193.852,50.484c-0.159,0.062-0.329,0.11-0.511,0.143c-0.182,0.033-0.484,0.068-0.908,0.106c-0.654,0.058-1.116,0.132-1.385,0.221
		c-0.27,0.089-0.473,0.231-0.609,0.426c-0.137,0.195-0.205,0.41-0.205,0.647c0,0.315,0.109,0.574,0.327,0.777
		c0.218,0.203,0.528,0.305,0.93,0.305c0.373,0,0.732-0.098,1.076-0.295c0.344-0.197,0.616-0.471,0.817-0.824
		C193.582,51.636,193.739,51.135,193.852,50.484z"/>
	<path fill-rule="evenodd" clip-rule="evenodd" fill="#FFFFFF" d="M3.461,9.257c0,1.094,0.402,2.035,1.205,2.821
		c0.804,0.787,1.77,1.18,2.898,1.18c1.129,0,2.094-0.376,2.898-1.129c0.803-0.752,1.205-1.676,1.205-2.77
		c0-1.094-0.402-2.035-1.205-2.821c-0.804-0.786-1.77-1.18-2.898-1.18c-1.094,0-2.052,0.376-2.872,1.129
		C3.871,7.239,3.461,8.163,3.461,9.257z"/>
</g>
</svg>
